<svg width="33" height="6" viewBox="0 0 33 6" fill="none" xmlns="http://www.w3.org/2000/svg">
<path opacity="0.49814" d="M0.654762 3.178C0.654762 4.647 1.87676 5.869 3.35876 5.869C4.84076 5.869 6.06276 4.647 6.06276 3.178C6.06276 1.67 4.84076 0.461 3.35876 0.461C1.87676 0.461 0.654762 1.67 0.654762 3.178ZM9.36088 3.178C9.36088 4.647 10.5829 5.869 12.0649 5.869C13.5469 5.869 14.7689 4.647 14.7689 3.178C14.7689 1.67 13.5469 0.461 12.0649 0.461C10.5829 0.461 9.36088 1.67 9.36088 3.178ZM18.067 3.178C18.067 4.647 19.289 5.869 20.771 5.869C22.253 5.869 23.475 4.647 23.475 3.178C23.475 1.67 22.253 0.461 20.771 0.461C19.289 0.461 18.067 1.67 18.067 3.178ZM26.7731 3.178C26.7731 4.647 27.9951 5.869 29.4771 5.869C30.9591 5.869 32.1811 4.647 32.1811 3.178C32.1811 1.67 30.9591 0.461 29.4771 0.461C27.9951 0.461 26.7731 1.67 26.7731 3.178Z" fill="black"/>
</svg>
