<svg width="192" height="21" viewBox="0 0 192 21" fill="none" xmlns="http://www.w3.org/2000/svg">
<g clip-path="url(#clip0_1_284)">
<path d="M2.13663 8.00834L0 1.45839H0.914241L1.9329 4.68626C2.2143 5.56994 2.4575 6.36704 2.63195 7.13485H2.65232C2.83695 6.37086 3.10944 5.54957 3.39976 4.69517L4.50754 1.45967H5.41032L3.06615 8.00834H2.13663Z" fill="#B7B7B7"/>
<path d="M5.86736 5.81059C5.88773 6.96804 6.62499 7.44299 7.48066 7.44299C7.92733 7.45698 8.37173 7.374 8.78326 7.19978L8.92332 7.81734C8.42795 8.02335 7.89474 8.12271 7.35842 8.10893C5.90938 8.10893 5.0448 7.15522 5.0448 5.73674C5.0448 4.31827 5.88137 3.20029 7.25018 3.20029C8.78708 3.20029 9.19582 4.55256 9.19582 5.41587C9.19399 5.54923 9.18378 5.68233 9.16525 5.81441L5.86736 5.81059ZM8.37452 5.19813C8.38598 4.65442 8.15169 3.80767 7.18907 3.80767C6.32448 3.80767 5.94504 4.60476 5.87628 5.19813H8.37452Z" fill="#B7B7B7"/>
<path d="M9.86556 4.7703C9.86556 4.21768 9.85538 3.74018 9.82736 3.30216H10.5786L10.6066 4.22532H10.6448C10.8587 3.58866 11.3732 3.1952 11.9487 3.1952C12.0303 3.19423 12.1116 3.20408 12.1906 3.22449V4.03177C12.0949 4.01072 11.9971 4.00089 11.899 4.00249C11.2968 4.00249 10.8702 4.45961 10.7531 5.10008C10.7284 5.23198 10.7152 5.36574 10.7136 5.4999V8.00834H9.86556V4.7703Z" fill="#B7B7B7"/>
<path d="M13.6472 1.98173C13.6472 2.12221 13.5914 2.25694 13.4921 2.35628C13.3928 2.45562 13.258 2.51142 13.1175 2.51142C12.9771 2.51142 12.8423 2.45562 12.743 2.35628C12.6437 2.25694 12.5878 2.12221 12.5878 1.98173C12.5864 1.91107 12.5994 1.84086 12.626 1.77538C12.6526 1.70989 12.6922 1.65051 12.7425 1.60083C12.7927 1.55116 12.8526 1.51223 12.9184 1.48643C12.9842 1.46063 13.0545 1.44849 13.1252 1.45075C13.1954 1.44856 13.2654 1.46093 13.3306 1.48709C13.3958 1.51324 13.4549 1.55262 13.5042 1.60273C13.5535 1.65284 13.5919 1.71261 13.6169 1.77827C13.642 1.84393 13.6532 1.91407 13.6498 1.98427L13.6472 1.98173ZM12.6961 3.30598H13.553V8.00961H12.6961V3.30598Z" fill="#B7B7B7"/>
<path d="M14.6673 8.00834V3.9541H14.0065V3.30343H14.6673V3.07933C14.6673 2.41848 14.8138 1.8162 15.211 1.43675C15.5218 1.14787 15.9328 0.991234 16.357 0.999998C16.6062 0.999176 16.8533 1.0454 17.0854 1.13624L16.9695 1.7971C16.7977 1.72261 16.6117 1.68655 16.4245 1.69141C15.6962 1.69141 15.5128 2.32807 15.5128 3.05259V3.30725H16.6486V3.95792H15.5128V8.00834H14.6673Z" fill="#B7B7B7"/>
<path d="M18.4441 1.98173C18.4441 2.12221 18.3883 2.25694 18.289 2.35628C18.1896 2.45562 18.0549 2.51142 17.9144 2.51142C17.7739 2.51142 17.6392 2.45562 17.5399 2.35628C17.4405 2.25694 17.3847 2.12221 17.3847 1.98173C17.3831 1.91113 17.3959 1.84094 17.4222 1.77542C17.4486 1.70989 17.4879 1.65039 17.5379 1.60052C17.5879 1.55064 17.6475 1.51143 17.7131 1.48525C17.7787 1.45907 17.8489 1.44647 17.9195 1.44821C17.9898 1.44602 18.0597 1.45839 18.1249 1.48454C18.1902 1.5107 18.2493 1.55007 18.2985 1.60018C18.3478 1.6503 18.3862 1.71006 18.4112 1.77573C18.4363 1.84139 18.4475 1.91153 18.4441 1.98173ZM17.4929 3.30343H18.3461V8.00706H17.4929V3.30343Z" fill="#B7B7B7"/>
<path d="M19.8548 5.81059C19.8752 6.96804 20.6125 7.44299 21.4681 7.44299C21.9148 7.45706 22.3592 7.37408 22.7707 7.19978L22.9172 7.81734C22.4218 8.02335 21.8886 8.12271 21.3523 8.10893C19.9032 8.10893 19.0386 7.15522 19.0386 5.73674C19.0386 4.31827 19.8752 3.20029 21.2427 3.20029C22.7796 3.20029 23.1871 4.55256 23.1871 5.41587C23.1858 5.54925 23.1756 5.68239 23.1565 5.81441L19.8548 5.81059ZM22.362 5.19813C22.3709 4.65442 22.1379 3.80767 21.1765 3.80767C20.312 3.80767 19.9338 4.60476 19.8637 5.19813H22.362Z" fill="#B7B7B7"/>
<path d="M27.9227 1.10823V6.79232C27.9227 7.21124 27.9316 7.68364 27.9609 8.00834H27.1969L27.1574 7.19214H27.1319C26.8696 7.71675 26.2979 8.11402 25.5288 8.11402C24.3918 8.11402 23.5183 7.15139 23.5183 5.72273C23.5081 4.15782 24.4809 3.19647 25.6269 3.19647C26.345 3.19647 26.8314 3.53772 27.0441 3.91589H27.0645V1.10823H27.9227ZM27.0657 5.2185C27.0674 5.09729 27.0546 4.97631 27.0275 4.85815C26.9663 4.57675 26.8104 4.32486 26.5859 4.14456C26.3613 3.96426 26.0817 3.86647 25.7937 3.86751C24.9024 3.86751 24.3841 4.64423 24.3841 5.68581C24.3841 6.63825 24.8489 7.42516 25.7746 7.42516C26.0684 7.42425 26.3531 7.32264 26.5811 7.13727C26.8091 6.9519 26.9667 6.69398 27.0275 6.40651C27.0557 6.28594 27.0685 6.1623 27.0657 6.03852V5.2185Z" fill="#B7B7B7"/>
<path d="M31.0881 8.00834C31.1084 7.68619 31.1263 7.21124 31.1263 6.79232V1.10823H31.9705V4.06233H31.9896C32.2914 3.53772 32.8351 3.19774 33.594 3.19774C34.7603 3.19774 35.5854 4.17056 35.5778 5.59795C35.5778 7.27873 34.5171 8.11529 33.4679 8.11529C32.7867 8.11529 32.243 7.85299 31.8928 7.23161H31.8648L31.824 8.00834H31.0881ZM31.9794 6.12255C31.982 6.22719 31.9952 6.33128 32.0189 6.43324C32.0893 6.71865 32.2531 6.9723 32.4843 7.15388C32.7155 7.33546 33.0008 7.43453 33.2947 7.43534C34.186 7.43534 34.7234 6.707 34.7234 5.62723C34.7234 4.68498 34.237 3.87769 33.3227 3.87769C33.02 3.88333 32.7277 3.98948 32.4919 4.17942C32.2561 4.36936 32.0901 4.63231 32.0201 4.92691C31.9914 5.03941 31.9747 5.15466 31.9705 5.2707L31.9794 6.12255Z" fill="#B7B7B7"/>
<path d="M36.5135 3.30343L37.5437 6.08436C37.6506 6.39505 37.7678 6.76431 37.8442 7.04699H37.8633C37.9524 6.76558 38.0479 6.41032 38.1663 6.06525L39.1009 3.30343H40.0063L38.7189 6.65608C38.1077 8.26937 37.6888 9.09575 37.1056 9.60126C36.8094 9.87341 36.4481 10.0646 36.0564 10.1564L35.8425 9.437C36.1166 9.34659 36.3708 9.20437 36.5912 9.01808C36.9016 8.76065 37.1479 8.43459 37.3106 8.06564C37.3449 8.00221 37.3677 7.93325 37.3781 7.86191C37.3707 7.78456 37.3509 7.7089 37.3196 7.6378L35.5802 3.30852L36.5135 3.30343Z" fill="#B7B7B7"/>
<path d="M14.1862 11.2171L11.5976 17.7734L10.5484 12.1988C10.5061 11.9253 10.3673 11.6759 10.1571 11.4959C9.94687 11.3158 9.67915 11.2169 9.40236 11.2171H5.15712L5.09982 11.496C5.9695 11.687 6.95759 11.9913 7.55732 12.3147C7.92404 12.5159 8.02845 12.6903 8.14687 13.164L10.1358 20.8497H12.7703L16.8067 11.2171H14.1862Z" fill="#B7B7B7"/>
<path d="M17.8736 11.2158L15.8134 20.8485H18.3065L20.3617 11.2158H17.8736Z" fill="#B7B7B7"/>
<path d="M23.6326 13.8872C23.6403 13.5422 23.9701 13.1755 24.6895 13.0774C25.5325 12.9995 26.381 13.1485 27.147 13.5091L27.5837 11.4718C26.8388 11.1911 26.0497 11.0458 25.2536 11.0427C22.7897 11.0427 21.0593 12.3542 21.0414 14.226C21.0287 15.61 22.2804 16.3906 23.2226 16.8464C24.1942 17.3176 24.5214 17.6193 24.5151 18.0446C24.5151 18.6915 23.7409 18.9742 23.0265 18.9843C21.7723 19.0047 21.0465 18.6469 20.4659 18.3782L20.0164 20.4881C20.5958 20.7543 21.6717 20.9873 22.7884 20.9975C25.4013 20.9975 27.1177 19.7025 27.1177 17.7021C27.1279 15.1555 23.6034 15.0192 23.6275 13.8822" fill="#B7B7B7"/>
<path d="M30.8462 17.4385L32.1705 13.821L32.9154 17.4385H30.8462ZM31.7923 11.2171C31.5648 11.2149 31.342 11.281 31.1526 11.4071C30.9632 11.5331 30.8161 11.7131 30.7304 11.9238L26.9932 20.8485H29.6111L30.1306 19.4096H33.3139L33.6131 20.8485H35.9229L33.92 11.2171H31.7923Z" fill="#B7B7B7"/>
</g>
<path fill-rule="evenodd" clip-rule="evenodd" d="M113.199 8.84318C113.199 8.23376 113.68 7.73669 114.256 7.73669C114.85 7.73669 115.315 8.23376 115.315 8.84318C115.315 9.45261 114.85 9.94968 114.256 9.94968C113.68 9.96556 113.199 9.46849 113.199 8.84318ZM114.256 9.70909C114.706 9.70909 115.059 9.32438 115.059 8.85906C115.059 8.39375 114.69 8.00904 114.256 8.00904C113.808 8.00904 113.455 8.39375 113.455 8.85906C113.455 9.32438 113.808 9.70909 114.256 9.70909ZM114.112 9.34025H113.887V8.36199H114.289C114.369 8.36199 114.465 8.36199 114.53 8.40962C114.609 8.45847 114.642 8.55374 114.642 8.65022C114.642 8.76258 114.577 8.85906 114.481 8.89081L114.658 9.32438H114.417L114.273 8.93845H114.112V9.34025ZM114.112 8.79433H114.24C114.289 8.79433 114.337 8.79433 114.369 8.77846C114.4 8.76258 114.417 8.71495 114.417 8.6661C114.417 8.63434 114.4 8.58671 114.369 8.57083C114.337 8.55374 114.273 8.55374 114.24 8.55374H114.128L114.112 8.79433Z" fill="#B7B7B7"/>
<path fill-rule="evenodd" clip-rule="evenodd" d="M98.0423 1.44944L97.754 3.34245C97.1287 3.00537 96.6634 2.87714 96.1663 2.87714C94.851 2.87714 93.9204 4.22423 93.9204 6.13312C93.9204 7.44724 94.5457 8.24963 95.5728 8.24963C96.0051 8.24963 96.4863 8.10552 97.0799 7.8002L96.7746 9.78969C96.1175 9.98144 95.701 10.0462 95.204 10.0462C93.2951 10.0462 92.108 8.60259 92.108 6.29311C92.108 3.18124 93.7445 1 96.1016 1C96.4057 1 96.6793 1.03175 96.904 1.09648L97.6417 1.28945C97.8334 1.36883 97.8823 1.38471 98.0423 1.44944Z" fill="#B7B7B7"/>
<path fill-rule="evenodd" clip-rule="evenodd" d="M92.1568 2.7489C92.108 2.73302 92.0445 2.73302 91.9797 2.73302C91.4021 2.73302 91.0662 3.03713 90.5203 3.88715L90.6803 2.81241H89.0767L87.9861 9.88495H89.7667C90.4079 5.55545 90.5679 4.81778 91.4179 4.81778C91.4668 4.81778 91.4827 4.81778 91.5462 4.81778C91.7074 3.96776 91.915 3.34245 92.2203 2.76478L92.1568 2.7489Z" fill="#B7B7B7"/>
<path fill-rule="evenodd" clip-rule="evenodd" d="M81.5547 9.78969C81.0735 9.94968 80.6888 10.0291 80.2882 10.0291C79.3906 10.0291 78.8935 9.48437 78.8935 8.47435C78.8935 8.28139 78.9094 8.05667 78.9411 7.83195L79.0535 7.14313L79.1329 6.58134L79.9035 1.75354H81.6671L81.4594 2.79653H82.373L82.1165 4.51246H81.2176L80.7535 7.46311C80.7377 7.59135 80.7206 7.68783 80.7206 7.75256C80.7206 8.1214 80.9135 8.28139 81.3312 8.28139C81.5388 8.28139 81.6829 8.26551 81.8112 8.21788L81.5547 9.78969Z" fill="#B7B7B7"/>
<path fill-rule="evenodd" clip-rule="evenodd" d="M74.5628 5.04128C74.5628 5.94016 74.9792 6.54959 75.9099 7.0149C76.6158 7.36786 76.744 7.479 76.744 7.8002C76.744 8.23376 76.4228 8.44138 75.7328 8.44138C75.2039 8.44138 74.7228 8.36199 74.1451 8.15315L73.9045 9.78969L73.9851 9.80557L74.3063 9.86908C74.4186 9.88495 74.5628 9.91671 74.7704 9.93381C75.1881 9.96556 75.5251 9.99731 75.7486 9.99731C77.6099 9.99731 78.4758 9.24377 78.4758 7.64021C78.4758 6.67782 78.1228 6.10015 77.2252 5.66781C76.4875 5.31485 76.4069 5.23425 76.4069 4.89717C76.4069 4.51246 76.6951 4.32072 77.2728 4.32072C77.6258 4.32072 78.0911 4.36835 78.5405 4.43185L78.797 2.79653C78.3317 2.71593 77.6417 2.65242 77.2411 2.65242C75.2357 2.65242 74.5469 3.72716 74.5628 5.04128Z" fill="#B7B7B7"/>
<path fill-rule="evenodd" clip-rule="evenodd" d="M112.171 9.86907H110.487L110.568 9.18026C110.087 9.72496 109.574 9.96556 108.933 9.96556C107.633 9.96556 106.783 8.79433 106.783 7.03077C106.783 4.67245 108.098 2.68417 109.67 2.68417C110.359 2.68417 110.873 2.98949 111.37 3.64655L111.755 1.15999H113.503L112.171 9.86907ZM109.558 8.21788C110.392 8.21788 110.968 7.23962 110.968 5.82779C110.968 4.93014 110.633 4.43185 110.022 4.43185C109.221 4.43185 108.643 5.42721 108.643 6.80606C108.643 7.73669 108.948 8.21788 109.558 8.21788Z" fill="#B7B7B7"/>
<path fill-rule="evenodd" clip-rule="evenodd" d="M87.1678 9.72496C86.5584 9.91671 85.9819 10.0132 85.3407 10.0132C83.3671 10.0132 82.3253 8.92257 82.3253 6.83781C82.3253 4.4001 83.6395 2.62066 85.4201 2.62066C86.8796 2.62066 87.8102 3.63068 87.8102 5.20249C87.8102 5.71544 87.7455 6.22838 87.5855 6.95017H84.0572C84.0413 7.06253 84.0413 7.11138 84.0413 7.17489C84.0413 8.00904 84.5701 8.4255 85.5972 8.4255C86.2225 8.4255 86.8002 8.28139 87.4414 7.97728L87.1678 9.72496ZM86.1737 5.50659C86.1908 5.36248 86.1908 5.23424 86.1908 5.15364C86.1908 4.57596 85.8854 4.24011 85.3566 4.24011C84.7948 4.24011 84.3942 4.68954 84.233 5.50659H86.1737Z" fill="#B7B7B7"/>
<path fill-rule="evenodd" clip-rule="evenodd" d="M67.4414 9.86908H65.6778L66.6878 3.18124L64.4101 9.86908H63.2071L63.063 3.23009L61.9883 9.86908H60.3371L61.7159 1.17709H64.266L64.3307 6.56546L66.0625 1.17709H68.8214L67.4414 9.86908Z" fill="#B7B7B7"/>
<path fill-rule="evenodd" clip-rule="evenodd" d="M72.0127 6.72545C71.8197 6.70957 71.7404 6.6937 71.6121 6.6937C70.6009 6.6937 70.1038 7.06253 70.1038 7.76844C70.1038 8.202 70.3603 8.49023 70.745 8.49023C71.4509 8.49023 71.9809 7.76844 72.0127 6.72545ZM73.2951 9.86907H71.8197L71.8515 9.13141C71.4033 9.72496 70.8097 9.98143 69.9915 9.98143C69.0291 9.98143 68.372 9.19614 68.372 8.05667C68.372 6.32486 69.5261 5.33073 71.4839 5.33073C71.6915 5.33073 71.948 5.3466 72.2044 5.37836C72.2533 5.13776 72.2692 5.04128 72.2692 4.91304C72.2692 4.44895 71.9651 4.27186 71.1309 4.27186C70.6339 4.27186 70.0562 4.35246 69.6544 4.4807L69.4309 4.56009L69.2697 4.60894L69.5103 3.02125C70.392 2.7489 70.9856 2.63654 71.628 2.63654C73.151 2.63654 73.9533 3.35833 73.9533 4.70542C73.9533 5.05838 73.9204 5.31485 73.808 6.11602L73.4563 8.63434L73.3916 9.08378L73.3439 9.43551L73.3122 9.69321L73.2951 9.86907Z" fill="#B7B7B7"/>
<path fill-rule="evenodd" clip-rule="evenodd" d="M101.105 6.72545C100.929 6.70957 100.833 6.6937 100.705 6.6937C99.6947 6.6937 99.1805 7.06253 99.1805 7.76844C99.1805 8.202 99.4382 8.49023 99.8229 8.49023C100.545 8.49023 101.074 7.76844 101.105 6.72545ZM102.389 9.86907H100.914L100.945 9.13141C100.496 9.72496 99.9023 9.98143 99.0852 9.98143C98.1228 9.98143 97.4646 9.19614 97.4646 8.05667C97.4646 6.32486 98.6199 5.33073 100.576 5.33073C100.768 5.33073 101.042 5.3466 101.298 5.37836C101.346 5.13776 101.362 5.04128 101.362 4.91304C101.362 4.44895 101.058 4.27186 100.223 4.27186C99.7264 4.27186 99.1487 4.35247 98.7482 4.4807L98.4917 4.54421L98.3305 4.59306L98.5711 3.00537C99.4541 2.73302 100.048 2.62066 100.689 2.62066C102.212 2.62066 103.014 3.34245 103.014 4.68954C103.014 5.04128 102.982 5.29897 102.87 6.10014L102.501 8.60259L102.452 9.05203L102.405 9.40376L102.373 9.64436L102.389 9.86907Z" fill="#B7B7B7"/>
<path fill-rule="evenodd" clip-rule="evenodd" d="M107.345 2.7489C107.296 2.73302 107.233 2.73302 107.168 2.73302C106.59 2.73302 106.253 3.03713 105.708 3.88715L105.87 2.81241H104.265L103.174 9.88495H104.955C105.596 5.55545 105.756 4.81778 106.606 4.81778C106.655 4.81778 106.655 4.81778 106.735 4.81778C106.895 3.96776 107.12 3.34245 107.408 2.76478L107.345 2.7489Z" fill="#B7B7B7"/>
<path fill-rule="evenodd" clip-rule="evenodd" d="M99.9023 16.7499C99.9023 18.3534 99.4052 19.3 98.6199 19.3C98.0423 19.3158 97.7052 18.6746 97.7052 17.7281C97.7052 16.6058 98.2181 15.3222 99.0205 15.3222C99.6776 15.3222 99.9023 16.0122 99.9023 16.7499ZM101.651 16.7658C101.651 14.9851 100.768 13.5904 99.117 13.5904C97.2081 13.5904 95.9734 15.2745 95.9734 17.7599C95.9734 19.5405 96.7111 21 98.5076 21C100.32 21 101.651 19.7164 101.651 16.7658Z" fill="#B7B7B7"/>
<path fill-rule="evenodd" clip-rule="evenodd" d="M96.5352 12.3556L96.2616 14.2474C95.6693 13.9116 95.2516 13.7821 94.7863 13.7821C93.5516 13.7821 92.6857 15.1304 92.6857 17.0381C92.6857 18.3534 93.2633 19.1558 94.2257 19.1558C94.6422 19.1558 95.0916 19.0105 95.6363 18.7064L95.3481 20.6947C94.7387 20.8876 94.3368 20.9511 93.8728 20.9511C92.0921 20.9511 90.9697 19.5088 90.9697 17.1981C90.9697 14.0874 92.5086 11.9062 94.7069 11.9062C94.9951 11.9062 95.2357 11.938 95.4446 12.0027L96.1175 12.1944C96.3422 12.2592 96.3899 12.275 96.5352 12.3556Z" fill="#B7B7B7"/>
<path fill-rule="evenodd" clip-rule="evenodd" d="M85.5801 13.638C85.5325 13.6221 85.469 13.6221 85.4042 13.6221C84.8595 13.6221 84.5542 13.9275 84.0413 14.7763L84.2013 13.7027H82.7101L81.6988 20.7753H83.3512C83.9448 16.4446 84.1048 15.7069 84.8913 15.7069C84.9389 15.7069 84.9389 15.7069 85.0195 15.7228C85.1636 14.8727 85.3725 14.2474 85.6448 13.6698L85.5801 13.638Z" fill="#B7B7B7"/>
<path fill-rule="evenodd" clip-rule="evenodd" d="M107.2 20.7106H105.628L105.708 20.0217C105.259 20.5664 104.778 20.807 104.168 20.807C102.965 20.807 102.164 19.6358 102.164 17.8723C102.164 15.5151 103.399 13.5256 104.858 13.5256C105.5 13.5256 105.997 13.831 106.446 14.5039L106.815 12.0186H108.451L107.2 20.7106ZM104.746 19.0435C105.532 19.0435 106.061 18.0652 106.061 16.6534C106.061 15.7557 105.756 15.2745 105.18 15.2745C104.426 15.2745 103.896 16.2528 103.896 17.6475C103.896 18.5782 104.184 19.0435 104.746 19.0435Z" fill="#B7B7B7"/>
<path fill-rule="evenodd" clip-rule="evenodd" d="M70.0562 20.6788C69.4944 20.8718 68.9497 20.9682 68.3561 20.9682C66.512 20.9682 65.5496 19.8776 65.5496 17.7916C65.5496 15.371 66.7843 13.5745 68.4355 13.5745C69.7997 13.5745 70.6656 14.5686 70.6656 16.1563C70.6656 16.6693 70.6009 17.1822 70.4568 17.904H67.169C67.1532 18.0164 67.1532 18.0652 67.1532 18.1287C67.1532 18.947 67.6502 19.3635 68.6126 19.3635C69.2062 19.3635 69.735 19.2193 70.3285 18.9152L70.0562 20.6788ZM69.1256 16.4604C69.1256 16.3163 69.1414 16.1881 69.1414 16.1087C69.1414 15.531 68.8532 15.1939 68.3561 15.1939C67.8261 15.1939 67.4573 15.6434 67.2973 16.4604H69.1256Z" fill="#B7B7B7"/>
<path fill-rule="evenodd" clip-rule="evenodd" d="M89.7509 20.6788C89.1891 20.8718 88.6444 20.9682 88.0508 20.9682C86.1908 20.9682 85.2272 19.8776 85.2272 17.7916C85.2272 15.371 86.4631 13.5745 88.1143 13.5745C89.4773 13.5745 90.3603 14.5686 90.3603 16.1563C90.3603 16.6693 90.2956 17.1822 90.1515 17.904H86.8637C86.8478 18.0164 86.8478 18.0652 86.8478 18.1287C86.8478 18.947 87.3449 19.3635 88.3073 19.3635C88.9008 19.3635 89.4297 19.2193 90.0232 18.9152L89.7509 20.6788ZM88.8202 16.4604C88.8361 16.3163 88.8361 16.1881 88.8361 16.1087C88.8361 15.531 88.5479 15.1939 88.0508 15.1939C87.5208 15.1939 87.1519 15.6434 86.992 16.4604H88.8202Z" fill="#B7B7B7"/>
<path fill-rule="evenodd" clip-rule="evenodd" d="M112.846 20.6788C112.268 20.8718 111.723 20.9682 111.146 20.9682C109.301 20.9682 108.323 19.8776 108.323 17.7916C108.323 15.371 109.558 13.5745 111.226 13.5745C112.589 13.5745 113.455 14.5686 113.455 16.1563C113.455 16.6693 113.39 17.1822 113.246 17.904H109.958C109.943 18.0164 109.943 18.0652 109.943 18.1287C109.943 18.947 110.44 19.3635 111.402 19.3635C111.996 19.3635 112.524 19.2193 113.118 18.9152L112.846 20.6788ZM111.915 16.4604C111.915 16.3163 111.931 16.1881 111.931 16.1087C111.931 15.531 111.643 15.1939 111.146 15.1939C110.616 15.1939 110.248 15.6434 110.087 16.4604H111.915Z" fill="#B7B7B7"/>
<path fill-rule="evenodd" clip-rule="evenodd" d="M65.1478 13.9592C64.8278 13.7345 64.3784 13.5586 63.7689 13.5586C63.0948 13.5586 62.566 13.7027 62.566 14.4074C62.566 15.6593 65.0037 15.1939 65.0037 17.8881C65.0037 20.3417 63.4001 20.9841 61.9406 20.9841C61.2995 20.9841 60.5447 20.7753 60 20.5188L60.4006 18.7223C60.7377 19.0276 61.3959 19.2352 61.9565 19.2352C62.4853 19.2352 63.2877 19.0911 63.2877 18.1764C63.2877 16.7499 60.85 17.2787 60.85 14.7763C60.85 12.4839 62.2777 11.8097 63.6566 11.8097C64.426 11.8097 65.1649 11.9221 65.5813 12.2103L65.1478 13.9592Z" fill="#B7B7B7"/>
<path fill-rule="evenodd" clip-rule="evenodd" d="M74.8998 20.6788C74.5628 20.8388 74.0975 20.9511 73.4233 20.9511C71.9809 20.9511 71.0821 19.5088 71.0821 17.744C71.0821 15.4345 72.3815 13.6063 74.2892 13.6063C74.7069 13.6063 75.3481 13.7821 75.8451 14.0716L75.4775 15.7557C75.1233 15.5151 74.7545 15.371 74.3698 15.371C73.488 15.371 72.8468 16.1881 72.8468 17.6317C72.8468 18.4658 73.3122 19.1558 74.0339 19.1558C74.4663 19.1558 74.7704 19.0594 75.1404 18.8505L74.8998 20.6788Z" fill="#B7B7B7"/>
<path fill-rule="evenodd" clip-rule="evenodd" d="M81.0894 18.8981C81.01 19.5088 80.9294 20.1011 80.8818 20.7264H79.2941L79.4223 19.5882H79.4064C78.9094 20.3588 78.3964 20.8876 77.4817 20.8876C76.4875 20.8876 75.9416 19.8288 75.9416 18.4658C75.9416 17.9846 75.9734 17.7281 76.0699 16.9905L76.5193 13.7186H78.2999L77.8188 17.0064C77.7699 17.3593 77.7064 17.7123 77.7064 18.0811C77.7064 18.4976 77.8981 18.9152 78.3793 18.8823C79.1011 18.8823 79.5347 18.0005 79.6629 16.9587L80.16 13.7186H81.8759L81.0894 18.8981Z" fill="#B7B7B7"/>
<path fill-rule="evenodd" clip-rule="evenodd" d="M114.497 20.647H114.224V19.4758H113.84V19.2193H114.882V19.4758H114.497V20.647Z" fill="#B7B7B7"/>
<path fill-rule="evenodd" clip-rule="evenodd" d="M116.277 20.647H116.021V19.4599L115.78 20.647H115.524L115.283 19.4599V20.647H115.027V19.2193H115.427L115.652 20.3417H115.668L115.893 19.2193H116.277V20.647Z" fill="#B7B7B7"/>
<path d="M162.711 13.9415C160.921 13.9415 159.556 12.8063 159.556 10.7866C159.556 8.7669 160.989 7.60299 162.802 7.60299C164.615 7.60299 165.942 8.75786 165.942 10.7579C165.942 12.7579 164.48 13.9415 162.71 13.9415H162.711ZM162.739 9.09846C161.922 9.09846 161.508 9.75307 161.508 10.7722C161.508 11.7914 161.931 12.422 162.749 12.422C163.567 12.422 163.98 11.7871 163.98 10.7579C163.98 9.72859 163.557 9.09367 162.739 9.09367V9.09846ZM174.118 10.2523C174.118 9.54072 173.81 9.29059 173.31 9.29059C172.953 9.30017 172.607 9.43428 172.348 9.67537V13.7536H170.376V10.2517C170.376 9.54019 170.059 9.29006 169.559 9.29006C169.206 9.28935 168.865 9.41574 168.597 9.6461V13.7531H166.625L166.635 7.73178H168.607V8.50134C169.136 7.95317 169.723 7.61629 170.501 7.62587C171.247 7.62587 171.887 7.98244 172.175 8.69346C172.723 8.03886 173.416 7.63545 174.234 7.63545C175.398 7.63545 176.09 8.41459 176.08 9.69399L176.071 13.7722H174.1L174.118 10.2523ZM178.072 6.97766C177.35 6.97766 176.908 6.60246 176.908 5.92922C176.908 5.22672 177.36 4.87122 178.072 4.87122C178.784 4.87122 179.236 5.22779 179.236 5.93881C179.236 6.61204 178.803 6.97766 178.072 6.97766ZM177.091 7.74721H179.062L179.053 13.7685H177.081L177.091 7.74721ZM182.226 13.9697C181.409 13.9697 180.332 13.7871 179.706 13.4407L180.091 12.017C180.762 12.3721 181.506 12.5663 182.265 12.5844C182.804 12.5844 183.073 12.421 183.073 12.1033C183.073 11.7573 182.736 11.6413 182.063 11.4875C180.678 11.2086 179.803 10.7084 179.803 9.54498C179.803 8.42896 180.774 7.63971 182.429 7.63971C183.217 7.63971 184.256 7.87068 184.843 8.15913L184.449 9.56414C183.776 9.21821 182.968 9.02555 182.4 9.02555C181.919 9.02555 181.669 9.18521 181.669 9.46728C181.669 9.78447 182.034 9.91964 182.688 10.0538C184.083 10.3614 184.923 10.8233 184.92 12.016C184.929 13.0836 183.987 13.9691 182.227 13.9691L182.226 13.9697ZM188.797 12.5327C189.451 12.5327 190.143 12.3018 190.739 11.9558L190.931 13.4758C190.335 13.7834 189.494 13.9569 188.613 13.9569C186.603 13.9569 185.294 12.8409 185.294 10.8403C185.294 8.89783 186.631 7.62747 188.517 7.63652C190.2 7.63652 191.124 8.64663 191.124 10.1378C191.124 10.455 191.085 10.9266 190.999 11.1863L187.228 11.2438V11.2725C187.285 12.0899 187.824 12.5327 188.796 12.5327H188.797ZM189.297 10.1474C189.297 9.43588 189.009 9.01225 188.392 9.0032C187.719 9.0032 187.306 9.58968 187.237 10.2634L189.296 10.2539L189.297 10.1474Z" fill="#B7B7B7"/>
<path d="M153.073 2.92656C149.171 -0.975519 142.829 -0.975519 138.927 2.92656C135.024 6.82863 135.024 13.1714 138.927 17.0734C142.829 20.9755 149.171 20.9755 153.073 17.0734C156.976 13.1714 156.976 6.82863 153.073 2.92656ZM151.513 10.2193L146.22 15.512C146.093 15.6397 145.894 15.6397 145.766 15.512L140.474 10.2193C140.346 10.0915 140.346 9.89303 140.474 9.7653L145.766 4.47259C145.894 4.34486 146.093 4.34486 146.22 4.47259L151.513 9.7653C151.641 9.89303 151.641 10.0915 151.513 10.2193Z" fill="#B7B7B7"/>
<path d="M156.005 9.97819C156.005 7.32465 154.955 4.77063 153.082 2.8973C151.493 1.30815 148.924 1.29378 147.335 2.88293L145.774 4.42949C145.832 4.37529 145.908 4.34488 145.987 4.34434C146.073 4.34724 146.154 4.38286 146.214 4.44386L153.053 11.2975C153.431 11.6747 153.73 12.1225 153.935 12.6156C154.139 13.1086 154.245 13.6371 154.245 14.1708C154.245 14.7046 154.139 15.2331 153.935 15.7261C153.73 16.2191 153.431 16.667 153.053 17.0442C154.94 15.1708 156.005 12.6312 156.005 9.97819ZM138.912 17.0245C140.501 18.6136 143.07 18.6136 144.673 17.0389L146.22 15.4636C146.106 15.5913 145.894 15.5913 145.766 15.4779L140.487 10.1996C140.417 10.1426 140.388 10.0437 140.388 9.9585C140.388 9.87335 140.416 9.7882 140.473 9.73125L138.94 11.264C137.351 12.8531 137.337 15.4215 138.912 17.025V17.0245Z" fill="#B7B7B7"/>
<defs>
<clipPath id="clip0_1_284">
<rect width="40.0025" height="20" fill="white" transform="translate(0 1)"/>
</clipPath>
</defs>
</svg>
