<svg width="25" height="9" viewBox="0 0 25 9" fill="none" xmlns="http://www.w3.org/2000/svg">
<path fill-rule="evenodd" clip-rule="evenodd" d="M9.42481 0.567438L6.17536 8.49846H4.05399L2.45572 2.16916C2.35841 1.77975 2.2736 1.63647 1.97904 1.47386C1.49656 1.20539 0.701541 0.954362 -3.05176e-05 0.797577L0.0477092 0.567438H3.46009C3.89584 0.567438 4.2873 0.863658 4.38563 1.37557L5.23072 5.96578L7.31766 0.567438H9.42481ZM17.7324 5.90947C17.741 3.8164 14.9023 3.70138 14.9227 2.76586C14.9286 2.48149 15.1931 2.17924 15.7727 2.1009C16.0611 2.06287 16.8525 2.03337 17.7505 2.45572L18.1036 0.774303C17.6212 0.595595 16.9987 0.422913 16.2275 0.422913C14.2451 0.422913 12.849 1.50171 12.837 3.04484C12.8251 4.18764 13.8331 4.82309 14.5933 5.20274C15.3752 5.59216 15.6375 5.84079 15.6338 6.18886C15.629 6.7202 15.0114 6.95533 14.4342 6.96499C13.4262 6.9811 12.8395 6.68602 12.3725 6.4644L12.0098 8.20224C12.4778 8.42271 13.3434 8.61358 14.2401 8.62324C16.3474 8.62324 17.7266 7.55795 17.7324 5.90947ZM22.9684 8.49846H24.8239L23.204 0.567438H21.4908C21.1076 0.567438 20.7821 0.797577 20.6384 1.15032L17.6285 8.49846H19.7346L20.1535 7.31431H22.7262L22.9684 8.49846ZM20.7293 5.6891L21.7865 2.71059L22.3934 5.6891H20.7293ZM12.2912 0.567438L10.6327 8.49846H8.62725L10.2858 0.567438H12.2912Z" fill="#2A2A6D"/>
</svg>
